<svg width="21" height="35" viewBox="0 0 21 35" fill="none" xmlns="http://www.w3.org/2000/svg">
<path d="M0.794189 9.67676C0.794189 4.62305 5.11548 0.65332 10.594 0.65332C16.0725 0.65332 20.3938 4.62305 20.3938 9.67676C20.3938 15.3018 16.7024 16.6934 16.1018 26.4639C16.0579 26.9912 15.7502 27.3281 15.179 27.3281H6.00903C5.45239 27.3281 5.13013 26.9912 5.10083 26.4639C4.50024 16.6934 0.794189 15.3018 0.794189 9.67676ZM5.96509 30.4922C5.48169 30.4922 5.10083 30.1113 5.10083 29.6279C5.10083 29.1592 5.48169 28.7783 5.96509 28.7783H15.2375C15.7209 28.7783 16.0872 29.1592 16.0872 29.6279C16.0872 30.1113 15.7209 30.4922 15.2375 30.4922H5.96509ZM10.594 34.7402C8.30884 34.7402 6.40454 33.627 6.302 31.9424H14.9006C14.7542 33.627 12.8645 34.7402 10.594 34.7402Z" fill="url(#paint0_linear_205_237)"/>
<defs>
<linearGradient id="paint0_linear_205_237" x1="11.0588" y1="-0.280273" x2="11.0588" y2="35.7197" gradientUnits="userSpaceOnUse">
<stop stop-color="#52FFAC"/>
<stop offset="1" stop-color="#7D8AFF" stop-opacity="0.51"/>
</linearGradient>
</defs>
</svg>
