<svg width="47" height="24" viewBox="0 0 47 24" fill="none" xmlns="http://www.w3.org/2000/svg">
<path d="M2.41211 3.71973C1.46875 3.71973 0.727539 2.97852 0.727539 2.03516C0.727539 1.0918 1.46875 0.328125 2.41211 0.328125H44.459C45.4023 0.328125 46.166 1.0918 46.166 2.03516C46.166 2.97852 45.4023 3.71973 44.459 3.71973H2.41211ZM2.41211 13.5127C1.46875 13.5127 0.727539 12.7715 0.727539 11.8281C0.727539 10.8623 1.46875 10.0986 2.41211 10.0986H44.459C45.4023 10.0986 46.166 10.8623 46.166 11.8281C46.166 12.7715 45.4023 13.5127 44.459 13.5127H2.41211ZM2.41211 23.3281C1.46875 23.3281 0.727539 22.5645 0.727539 21.5986C0.727539 20.6553 1.46875 19.9141 2.41211 19.9141H44.459C45.4023 19.9141 46.166 20.6553 46.166 21.5986C46.166 22.5645 45.4023 23.3281 44.459 23.3281H2.41211Z" fill="black"/>
</svg>
